<?xml version="1.0" standalone="no"?>
<!DOCTYPE svg PUBLIC "-//W3C//DTD SVG 20010904//EN"
 "http://www.w3.org/TR/2001/REC-SVG-20010904/DTD/svg10.dtd">
<svg version="1.0" xmlns="http://www.w3.org/2000/svg"
 width="600.000000pt" height="600.000000pt" viewBox="0 0 600.000000 600.000000"
 preserveAspectRatio="xMidYMid meet">

<g transform="translate(0.000000,600.000000) scale(0.100000,-0.100000)"
fill="#000000" stroke="none">
<path d="M2830 5403 c-290 -32 -548 -105 -787 -222 -280 -137 -482 -285 -541
-396 -24 -44 -27 -61 -27 -145 0 -87 3 -100 30 -148 62 -113 170 -176 295
-175 82 0 128 20 252 108 482 344 1031 425 1575 234 631 -222 1078 -808 1129
-1481 l7 -88 -227 0 c-244 0 -270 -4 -315 -53 -33 -37 -41 -117 -15 -166 10
-20 181 -256 379 -526 198 -269 369 -503 378 -518 58 -90 181 -88 249 5 14 18
119 161 233 318 115 157 278 378 362 492 152 206 183 258 183 305 0 43 -40
101 -85 123 -38 18 -62 20 -268 20 l-227 0 0 63 c0 83 -26 289 -50 402 -97
445 -314 841 -639 1165 -398 397 -885 624 -1465 685 -176 18 -258 18 -426 -2z"/>
<path d="M853 4256 c-17 -8 -49 -38 -70 -68 -22 -29 -197 -267 -390 -529 -201
-273 -358 -495 -368 -522 -23 -60 -14 -108 30 -155 l33 -37 245 -3 245 -3 6
-31 c3 -17 6 -54 6 -82 0 -127 42 -365 96 -543 188 -622 634 -1144 1219 -1428
158 -77 301 -131 437 -165 704 -180 1433 -38 2004 390 137 103 177 173 178
305 1 68 -3 89 -27 136 -32 67 -99 132 -165 162 -35 16 -67 21 -127 21 -98 0
-145 -20 -285 -124 -110 -81 -313 -186 -448 -230 -614 -203 -1283 -41 -1743
422 -283 285 -463 677 -485 1055 l-7 112 246 3 245 3 27 25 c57 53 70 117 37
180 -15 29 -181 257 -770 1059 -41 55 -106 74 -169 47z"/>
</g>
</svg>
